<?xml version="1.0" standalone="no"?>
<!DOCTYPE svg PUBLIC "-//W3C//DTD SVG 20010904//EN"
 "http://www.w3.org/TR/2001/REC-SVG-20010904/DTD/svg10.dtd">
<svg version="1.0" xmlns="http://www.w3.org/2000/svg"
 width="512.000000pt" height="512.000000pt" viewBox="0 0 512.000000 512.000000"
 preserveAspectRatio="xMidYMid meet">

<g transform="translate(0.000000,512.000000) scale(0.100000,-0.100000)"
fill="#000000" stroke="none">
<path d="M2570 5103 c0 -5 -68 -9 -152 -10 -111 -2 -154 -6 -160 -15 -6 -10
-8 -10 -8 0 0 6 -7 12 -15 12 -8 0 -15 -4 -15 -8 0 -4 -15 -6 -33 -4 -22 2
-39 -2 -50 -12 -11 -12 -17 -13 -21 -3 -3 8 -9 6 -20 -7 -9 -11 -16 -14 -16
-8 0 7 -7 12 -15 12 -8 0 -15 -5 -15 -11 0 -8 -4 -8 -14 0 -10 9 -16 9 -21 1
-4 -6 -15 -8 -26 -5 -12 4 -21 1 -25 -10 -5 -12 -10 -13 -20 -4 -11 9 -15 7
-20 -5 -4 -10 -13 -14 -24 -11 -10 3 -21 1 -24 -4 -4 -6 -13 -8 -20 -5 -7 3
-33 -2 -57 -11 -24 -8 -84 -29 -134 -46 -49 -17 -91 -35 -93 -40 -2 -5 -12 -9
-23 -9 -10 0 -19 -5 -19 -11 0 -5 -4 -8 -9 -5 -18 12 -316 -153 -441 -243
-600 -436 -972 -1071 -1061 -1811 -18 -147 -22 -375 -10 -470 45 -335 73 -462
148 -673 305 -853 1034 -1478 1928 -1651 224 -43 604 -50 835 -16 156 24 355
73 502 125 176 63 487 221 470 240 -4 5 -2 5 5 1 7 -4 21 2 33 14 11 11 20 18
20 15 0 -3 35 19 77 49 47 32 80 63 84 77 4 13 7 18 8 12 2 -20 22 -15 28 7 3
11 9 17 14 14 5 -3 30 15 56 41 26 25 51 45 55 45 5 0 8 9 8 20 0 13 5 18 15
14 10 -4 20 4 30 27 8 19 14 27 15 19 0 -21 100 88 112 123 8 21 13 25 19 16
6 -10 12 -4 23 21 8 19 17 34 21 32 9 -5 86 94 78 102 -3 3 1 6 10 6 9 0 18
12 22 30 4 17 10 28 14 25 10 -6 71 90 71 112 0 8 9 17 19 20 12 3 21 17 26
39 3 19 13 38 21 41 7 3 14 13 14 23 0 11 4 21 10 25 5 3 7 12 3 20 -3 9 1 15
10 15 16 0 27 20 27 51 0 11 9 27 19 36 11 9 17 22 14 28 -2 7 0 16 6 20 6 3
11 13 11 22 0 9 7 21 15 27 8 6 16 22 18 36 4 27 11 47 33 97 8 17 14 43 14
57 0 14 9 42 19 63 11 21 22 67 26 103 4 36 11 67 16 70 7 5 34 147 43 225 1
12 5 25 8 30 3 6 5 36 4 68 -1 32 1 60 4 62 15 9 15 330 0 330 -1 0 -3 27 -5
60 -2 33 -5 71 -8 85 -2 14 -10 63 -17 110 -17 115 -18 123 -19 140 -1 11 -3
12 -9 3 -5 -8 -13 24 -21 77 -7 50 -17 88 -22 84 -5 -3 -9 -3 -9 -1 0 19 -24
124 -30 132 -4 6 -10 22 -14 38 -4 15 -19 53 -34 85 -26 55 -28 63 -31 90 0 7
-5 11 -10 8 -10 -7 -21 16 -21 44 0 10 -6 25 -13 32 -7 7 -21 29 -30 48 -10
19 -31 58 -47 85 -16 28 -33 60 -39 72 -5 11 -15 24 -21 28 -7 4 -19 23 -27
43 -11 27 -17 32 -24 21 -7 -11 -9 -9 -9 7 0 26 -113 180 -119 163 -2 -7 -9 3
-15 22 -7 19 -17 33 -24 31 -7 -1 -17 9 -22 23 -5 14 -14 25 -20 25 -5 0 -10
6 -10 13 0 8 -11 19 -24 26 -13 7 -29 25 -36 39 -8 19 -14 22 -19 13 -6 -9
-12 -4 -19 18 -6 17 -16 31 -21 31 -6 0 -29 18 -51 40 -22 22 -44 40 -49 40
-5 0 -11 10 -14 22 -5 18 -8 19 -21 8 -13 -10 -16 -10 -16 1 0 8 -5 21 -10 29
-9 13 -11 13 -20 0 -9 -13 -10 -13 -10 0 0 9 -14 27 -31 40 -17 14 -39 33 -50
43 -10 9 -25 17 -33 17 -8 0 -17 7 -20 16 -3 9 -13 14 -21 11 -8 -4 -16 2 -20
14 -5 14 -12 18 -26 14 -13 -4 -19 -2 -19 9 0 16 -57 49 -71 40 -5 -3 -9 -1
-9 4 0 12 -76 61 -107 68 -13 4 -27 13 -30 21 -3 8 -13 11 -23 8 -11 -4 -20 1
-24 11 -5 13 -10 14 -18 6 -8 -8 -14 -7 -23 5 -13 18 -104 55 -117 47 -4 -3
-8 -1 -8 5 0 6 -26 18 -57 27 -32 9 -64 21 -70 26 -7 6 -20 8 -28 4 -9 -3 -18
1 -22 9 -3 10 -12 13 -23 10 -10 -3 -21 -1 -25 5 -3 6 -11 8 -16 4 -5 -3 -17
0 -25 7 -8 6 -17 9 -21 6 -3 -4 -13 -2 -20 5 -11 9 -16 9 -23 -2 -7 -12 -10
-11 -16 3 -4 11 -13 16 -22 12 -8 -3 -19 0 -23 7 -6 9 -11 9 -22 -1 -11 -9
-17 -9 -22 -1 -4 6 -13 9 -20 6 -8 -3 -19 2 -26 10 -10 12 -13 12 -25 -3 -13
-17 -13 -17 -14 0 0 19 -30 24 -30 5 0 -9 -3 -9 -9 1 -11 18 -107 31 -121 17
-7 -7 -10 -7 -10 0 0 6 -34 11 -85 11 -47 0 -88 3 -92 6 -9 9 -23 9 -23 0z
m-390 -53 c0 -5 -2 -10 -4 -10 -3 0 -8 5 -11 10 -3 6 -1 10 4 10 6 0 11 -4 11
-10z m515 -170 c3 -5 1 -10 -4 -10 -6 0 -11 5 -11 10 0 6 2 10 4 10 3 0 8 -4
11 -10z m-820 -743 c0 -466 3 -677 11 -677 17 0 33 22 27 39 -4 12 -3 13 4 3
8 -10 23 -5 70 23 90 53 206 99 318 126 137 33 365 33 500 1 136 -32 253 -82
370 -157 93 -59 85 -121 85 637 0 372 -4 668 -9 668 -5 0 -9 -279 -9 -627 -1
-729 0 -698 -8 -691 -10 11 -7 1319 4 1330 27 27 428 -154 608 -274 126 -85
304 -226 304 -242 0 -6 -193 -205 -430 -441 -236 -236 -430 -432 -430 -435 0
-3 30 -37 67 -74 l67 -69 18 23 c10 12 18 28 18 36 0 8 6 11 16 7 10 -4 17 1
21 16 3 11 12 21 20 21 8 0 17 9 20 20 3 10 14 22 24 25 12 4 22 19 26 37 4
18 9 25 13 18 11 -17 30 -3 30 22 0 14 5 18 16 14 10 -4 18 1 21 14 3 10 14
22 24 25 10 4 19 12 19 20 0 8 9 17 21 20 11 4 25 20 31 37 8 22 13 26 19 17
6 -10 12 -5 22 19 7 18 16 30 19 27 7 -8 64 47 60 58 -1 4 9 12 23 17 17 6 27
20 32 41 4 22 8 27 14 17 7 -11 11 -10 19 2 5 8 10 20 10 27 0 7 7 10 16 6 10
-4 17 1 21 16 3 11 12 21 20 21 8 0 17 9 20 20 3 10 14 22 24 25 12 4 22 19
26 37 4 18 9 25 13 18 11 -17 30 -3 30 22 0 14 5 18 16 14 10 -4 18 1 21 14 3
10 14 22 24 25 10 4 19 12 19 20 0 8 9 16 19 20 11 3 22 12 25 20 11 30 34 13
103 -73 148 -182 299 -437 368 -617 52 -137 67 -186 61 -200 -5 -13 -95 -15
-668 -13 -365 1 -631 4 -593 8 l70 6 -65 2 c-91 2 -100 -5 -63 -59 253 -370
258 -888 12 -1251 -22 -32 -39 -60 -39 -63 0 -3 304 -5 675 -5 457 0 675 -3
675 -10 0 -6 -9 -38 -20 -70 -96 -285 -253 -557 -458 -797 l-45 -52 -58 60
c-32 33 -63 58 -69 54 -5 -3 -10 1 -10 9 0 21 -147 169 -160 161 -5 -3 -10 3
-10 13 0 25 -26 48 -33 30 -4 -9 -6 -8 -6 3 -1 24 -118 144 -124 127 -4 -9 -6
-8 -6 4 -1 18 -153 178 -170 178 -6 0 -11 5 -11 10 0 18 -148 162 -159 155 -6
-3 -11 2 -11 13 0 10 -11 28 -24 39 l-24 21 -63 -64 -64 -64 434 -434 c238
-238 432 -438 430 -444 -6 -16 -155 -137 -254 -207 -76 -53 -298 -185 -310
-185 -3 0 -30 -12 -62 -27 -32 -15 -64 -28 -72 -29 -8 -2 -18 -9 -22 -16 -5
-7 -9 -10 -9 -6 0 4 -37 -6 -82 -23 -45 -16 -88 -28 -96 -27 -12 3 -14 101
-14 679 l1 677 -52 -36 c-29 -19 -95 -55 -147 -79 -52 -24 -102 -48 -111 -52
-8 -5 -41 -14 -72 -21 -31 -6 -60 -16 -63 -22 -4 -7 -9 -6 -14 2 -5 8 -11 8
-22 -4 -12 -11 -18 -12 -27 -3 -9 9 -14 9 -20 -2 -5 -7 -14 -10 -20 -6 -7 4
-18 2 -26 -5 -9 -8 -15 -8 -20 0 -5 8 -10 8 -20 0 -9 -8 -15 -8 -20 0 -3 5 -1
10 6 10 7 0 9 3 6 7 -4 3 -15 -1 -24 -9 -19 -15 -98 -18 -121 -4 -7 4 -17 4
-23 1 -6 -4 -22 4 -37 16 -14 13 -21 17 -14 8 14 -19 4 -33 -14 -18 -8 7 -14
7 -19 -1 -4 -7 -11 -5 -21 4 -8 9 -21 13 -28 10 -8 -3 -17 0 -21 6 -5 8 -10 8
-20 0 -9 -8 -14 -6 -19 5 -3 9 -11 13 -16 10 -6 -4 -27 2 -48 13 -20 10 -50
22 -67 26 -16 4 -38 15 -47 23 -10 9 -18 13 -18 10 0 -4 -15 2 -32 13 -18 11
-43 24 -55 30 -13 5 -23 14 -23 21 0 6 3 9 8 7 226 -112 271 -131 259 -110 -4
5 -27 15 -52 22 -24 7 -50 19 -56 26 -6 8 -20 14 -30 14 -11 0 -19 5 -19 10 0
6 -9 10 -19 10 -10 0 -21 7 -25 15 -3 8 -12 15 -20 15 -8 0 -28 12 -45 26 -17
14 -38 23 -46 20 -17 -6 -16 58 -16 -758 0 -584 -1 -597 -20 -603 -24 -8 -69
1 -112 23 -17 9 -36 17 -42 17 -19 2 -63 24 -70 35 -3 5 -11 8 -16 4 -5 -3
-16 0 -24 6 -8 6 -18 9 -24 6 -5 -3 -12 1 -15 10 -4 9 -13 14 -21 10 -8 -3
-15 -1 -15 3 0 5 -12 14 -27 20 -16 6 -46 22 -68 36 -22 13 -47 27 -55 31 -8
4 -32 20 -54 36 -21 15 -42 25 -47 23 -4 -3 -13 4 -19 15 -6 11 -15 18 -21 15
-5 -4 -12 1 -15 9 -3 9 -11 16 -16 16 -13 0 -111 77 -121 96 -6 11 -12 12 -22
4 -10 -8 -14 -5 -19 15 -4 15 -12 25 -19 22 -14 -4 -68 63 -60 76 3 5 11 0 19
-11 22 -32 190 -163 304 -238 95 -63 361 -204 383 -204 20 0 -16 29 -44 35
-17 4 -54 20 -82 35 -29 16 -71 38 -94 49 -24 11 -43 25 -43 32 0 6 -7 9 -15
5 -9 -3 -19 3 -25 15 -6 11 -14 18 -18 15 -4 -2 -27 9 -52 26 -107 72 -135 94
-143 106 -4 6 -14 12 -22 12 -8 0 -19 9 -25 20 -6 11 -17 20 -25 20 -7 0 -17
9 -20 20 -4 11 -10 18 -15 15 -13 -8 -61 58 -50 69 6 6 11 21 11 36 1 17 3 20
6 7 4 -14 8 -16 19 -6 8 6 14 20 14 30 0 13 5 16 16 12 10 -3 17 1 20 14 3 10
15 23 27 28 12 6 21 14 19 19 -2 5 7 14 20 20 13 7 26 24 29 41 4 17 7 24 8
18 2 -22 21 -14 31 13 6 14 14 23 19 20 5 -3 14 1 21 9 7 8 9 15 4 15 -5 1 4
8 19 16 15 8 25 19 22 24 -3 5 4 11 15 15 11 4 27 21 34 38 8 18 15 26 15 18
2 -22 31 8 32 33 0 12 3 15 6 8 4 -10 15 -4 36 20 17 18 30 36 29 41 -1 4 9
12 23 17 15 6 28 21 34 42 5 18 10 25 10 14 1 -15 4 -16 16 -6 8 7 15 21 15
31 0 13 5 16 16 12 10 -4 17 1 21 16 3 11 12 21 20 21 8 0 17 8 20 18 2 10 14
22 26 27 14 6 23 21 25 39 3 20 6 25 12 16 11 -17 30 -4 30 22 0 14 5 18 16
14 11 -4 18 1 21 14 3 11 11 20 18 20 7 0 18 6 24 14 10 11 5 22 -21 50 -18
20 -38 36 -44 36 -7 0 -14 10 -18 23 -3 12 -14 27 -24 34 -17 10 -65 -34 -453
-423 -238 -239 -434 -434 -436 -434 -6 0 -53 52 -53 59 0 5 -7 11 -15 15 -8 3
-15 13 -15 22 0 8 -6 14 -12 11 -8 -2 -18 10 -24 27 -7 17 -16 30 -22 29 -6
-2 -21 18 -33 42 -12 25 -26 45 -31 45 -4 0 -8 9 -8 20 0 11 -6 20 -13 20 -7
0 -21 16 -30 35 -9 19 -25 51 -34 70 -9 19 -23 35 -30 35 -7 0 -13 8 -13 18 0
9 -6 27 -13 39 -47 85 -76 145 -82 172 -4 18 -13 31 -21 31 -9 0 -13 3 -11 8
8 12 -20 107 -31 105 -5 -1 -12 19 -16 45 -3 26 -7 52 -9 57 -1 7 234 12 683
15 604 4 685 7 688 20 1 9 -6 25 -17 37 -11 12 -37 52 -57 90 -19 37 -39 73
-44 78 -5 6 -12 24 -16 40 -4 17 -11 35 -16 41 -5 7 -22 73 -38 148 -27 121
-30 150 -26 259 4 129 5 130 30 246 19 92 15 103 -8 19 -27 -101 -36 -175 -36
-294 0 -230 66 -447 192 -631 16 -24 25 -43 21 -43 -18 1 -42 28 -56 63 -9 20
-20 37 -25 37 -5 0 -14 18 -21 40 -6 22 -16 40 -21 40 -4 0 -11 15 -15 32 -4
18 -13 43 -21 56 -8 12 -12 22 -10 22 3 0 -2 16 -10 35 -7 19 -14 46 -14 60 0
14 -4 25 -8 25 -4 0 -8 8 -9 18 0 9 -6 64 -13 122 -10 92 -8 200 6 315 7 54
49 194 63 207 11 11 12 9 7 -12 -7 -24 -6 -24 8 -6 9 11 16 29 16 40 0 17 -2
18 -10 6 -22 -34 -9 22 15 66 14 25 25 56 25 69 0 15 5 23 13 20 10 -4 47 45
65 88 2 4 -297 7 -665 7 -369 0 -672 2 -675 5 -8 9 16 110 29 118 7 4 15 30
19 58 6 43 10 50 26 46 19 -5 39 19 37 45 0 7 -7 0 -15 -17 l-14 -30 6 35 c4
19 17 54 30 78 13 23 24 49 24 56 0 8 6 16 14 19 8 3 17 20 21 37 4 18 16 41
26 51 10 10 19 28 19 39 0 17 37 48 50 41 2 -1 6 3 8 11 2 9 0 8 -7 -2 -9 -13
-11 -13 -11 3 0 9 9 25 19 34 11 9 18 20 15 24 -2 5 5 13 16 19 11 6 18 15 15
20 -3 5 0 12 5 15 6 4 15 18 20 31 5 13 15 23 21 22 6 -2 16 11 23 28 6 17 16
29 24 27 6 -3 12 2 12 10 0 8 7 17 15 21 8 3 15 11 15 18 0 7 9 19 20 26 12 7
19 16 16 20 -3 4 3 8 13 9 11 1 184 -165 451 -432 409 -409 435 -433 452 -418
10 9 18 24 18 35 0 10 6 18 13 18 6 0 27 13 46 29 l35 28 -26 26 c-14 14 -28
32 -31 41 -4 9 -13 13 -20 10 -10 -3 -17 4 -21 20 -3 14 -11 26 -17 26 -12 0
-119 110 -119 123 0 5 -6 7 -14 4 -9 -4 -16 3 -20 19 -4 13 -11 24 -17 24 -13
0 -119 109 -119 122 0 6 -7 8 -15 4 -10 -3 -17 3 -21 19 -3 14 -10 25 -16 25
-11 0 -118 111 -118 123 0 4 -7 7 -15 7 -9 0 -20 11 -25 25 -5 14 -13 24 -18
23 -9 -3 -108 96 -116 117 -3 8 -12 12 -19 9 -10 -3 -17 4 -21 20 -3 14 -11
26 -17 26 -6 0 -24 14 -39 30 -31 33 -31 65 1 73 12 3 19 14 19 29 0 17 3 19
9 9 11 -17 31 -6 31 16 0 9 3 14 6 10 4 -3 32 13 63 37 173 134 384 254 586
334 128 51 158 61 170 58 7 -2 10 -237 10 -679z m-905 223 c0 -5 -2 -10 -4
-10 -3 0 -8 5 -11 10 -3 6 -1 10 4 10 6 0 11 -4 11 -10z m1210 0 c0 -5 -2 -10
-4 -10 -3 0 -8 5 -11 10 -3 6 -1 10 4 10 6 0 11 -4 11 -10z m515 -170 c3 -5 1
-10 -4 -10 -6 0 -11 5 -11 10 0 6 2 10 4 10 3 0 8 -4 11 -10z m-1210 -520 c3
-5 1 -10 -4 -10 -6 0 -11 5 -11 10 0 6 2 10 4 10 3 0 8 -4 11 -10z m695 0 c0
-5 -2 -10 -4 -10 -3 0 -8 5 -11 10 -3 6 -1 10 4 10 6 0 11 -4 11 -10z m-1210
-520 c0 -5 -2 -10 -4 -10 -3 0 -8 5 -11 10 -3 6 -1 10 4 10 6 0 11 -4 11 -10z
m3110 0 c0 -5 -2 -10 -4 -10 -3 0 -8 5 -11 10 -3 6 -1 10 4 10 6 0 11 -4 11
-10z m-3805 -170 c3 -5 1 -10 -4 -10 -6 0 -11 5 -11 10 0 6 2 10 4 10 3 0 8
-4 11 -10z m1210 0 c3 -5 1 -10 -4 -10 -6 0 -11 5 -11 10 0 6 2 10 4 10 3 0 8
-4 11 -10z m3110 0 c3 -5 1 -10 -4 -10 -6 0 -11 5 -11 10 0 6 2 10 4 10 3 0 8
-4 11 -10z m-3625 -520 c0 -5 -2 -10 -4 -10 -3 0 -8 5 -11 10 -3 6 -1 10 4 10
6 0 11 -4 11 -10z m0 -520 c0 -5 -2 -10 -4 -10 -3 0 -8 5 -11 10 -3 6 -1 10 4
10 6 0 11 -4 11 -10z m3110 0 c0 -5 -2 -10 -4 -10 -3 0 -8 5 -11 10 -3 6 -1
10 4 10 6 0 11 -4 11 -10z m-3805 -170 c3 -5 1 -10 -4 -10 -6 0 -11 5 -11 10
0 6 2 10 4 10 3 0 8 -4 11 -10z m1658 -159 c-4 -3 -11 -10 -14 -14 -4 -5 -11
5 -17 22 l-11 31 25 -16 c13 -9 21 -19 17 -23z m247 -361 c0 -5 -2 -10 -4 -10
-3 0 -8 5 -11 10 -3 6 -1 10 4 10 6 0 11 -4 11 -10z m515 -170 c3 -5 1 -10 -4
-10 -6 0 -11 5 -11 10 0 6 2 10 4 10 3 0 8 -4 11 -10z m-1725 -350 c0 -5 -2
-10 -4 -10 -3 0 -8 5 -11 10 -3 6 -1 10 4 10 6 0 11 -4 11 -10z m1210 0 c0 -5
-2 -10 -4 -10 -3 0 -8 5 -11 10 -3 6 -1 10 4 10 6 0 11 -4 11 -10z m515 -170
c3 -5 1 -10 -4 -10 -6 0 -11 5 -11 10 0 6 2 10 4 10 3 0 8 -4 11 -10z"/>
<path d="M970 4292 c0 -4 196 -203 435 -442 239 -239 435 -429 435 -422 0 12
-853 872 -865 872 -3 0 -5 -3 -5 -8z"/>
<path d="M2428 3473 c20 -8 14 -21 -10 -20 -68 1 -173 -30 -268 -78 -239 -121
-412 -334 -481 -596 -32 -118 -32 -337 0 -454 90 -334 356 -593 689 -669 86
-19 271 -23 362 -6 137 25 272 85 390 174 77 58 140 127 140 155 0 14 2 14 10
1 7 -12 12 -8 21 18 6 18 19 37 29 42 10 6 20 22 22 37 2 16 8 27 15 26 7 -2
12 0 12 5 -3 19 2 25 11 12 8 -11 9 -9 5 11 -4 17 1 39 14 62 11 20 23 59 27
87 4 27 10 50 14 50 19 0 33 126 28 263 -6 139 -12 182 -28 172 -4 -2 -10 19
-13 48 -3 29 -15 70 -26 90 -12 21 -21 42 -21 47 0 16 -101 165 -110 163 -4
-1 -13 10 -18 25 -5 15 -31 45 -57 67 -26 22 -57 49 -68 60 -12 11 -27 19 -33
17 -6 -1 -14 7 -17 19 -4 14 -11 20 -21 16 -9 -4 -19 0 -23 7 -10 16 -54 41
-67 38 -4 -2 -13 4 -20 11 -6 8 -42 24 -81 36 -38 12 -77 24 -85 28 -8 3 -40
8 -70 10 -30 3 -60 9 -67 14 -7 7 -14 6 -18 -1 -5 -8 -11 -7 -22 1 -12 10 -16
10 -24 -2 -7 -10 -11 -11 -17 -2 -5 8 -19 9 -43 4 -25 -6 -41 -4 -54 5 -10 8
-24 14 -29 13 -6 0 -5 -3 2 -6z m-248 -323 c0 -5 -2 -10 -4 -10 -3 0 -8 5 -11
10 -3 6 -1 10 4 10 6 0 11 -4 11 -10z m556 -19 c187 -55 346 -215 403 -405 23
-76 28 -236 10 -316 -32 -144 -152 -302 -289 -381 -41 -24 -76 -47 -78 -50 -2
-4 -12 -5 -22 -2 -11 3 -20 0 -20 -6 0 -5 -7 -8 -15 -5 -8 4 -17 -1 -21 -9 -4
-11 -17 -14 -50 -11 -27 3 -44 0 -44 -6 0 -7 -9 -5 -22 4 -12 9 -27 16 -33 16
-5 0 -3 -4 5 -10 8 -5 11 -12 7 -16 -3 -4 -13 -2 -20 4 -8 7 -17 9 -20 5 -11
-10 -58 -10 -64 0 -3 5 1 13 8 18 9 6 10 9 2 9 -6 0 -19 -7 -28 -17 -13 -13
-18 -14 -25 -3 -4 7 -15 10 -24 7 -9 -4 -16 -2 -16 2 0 5 -18 12 -40 16 -22 4
-43 11 -46 16 -3 6 -23 17 -45 26 -21 8 -39 19 -39 24 0 5 -11 14 -25 19 -14
5 -28 17 -31 25 -4 8 -12 15 -19 15 -8 0 -17 9 -20 21 -4 11 -12 18 -18 16 -7
-2 -18 8 -25 22 -6 14 -25 46 -42 71 -16 25 -32 52 -36 60 -3 8 -10 24 -15 35
-50 116 -50 335 1 450 4 11 14 35 22 52 13 33 46 59 34 28 -3 -10 -2 -13 5
-10 5 4 7 15 4 25 -6 18 27 65 37 54 3 -2 3 11 1 29 -2 21 -1 26 5 15 6 -16
10 -14 36 12 62 67 177 130 286 160 93 25 224 22 326 -9z m654 -671 c0 -5 -2
-10 -4 -10 -3 0 -8 5 -11 10 -3 6 -1 10 4 10 6 0 11 -4 11 -10z m-1210 -520
c0 -5 -2 -10 -4 -10 -3 0 -8 5 -11 10 -3 6 -1 10 4 10 6 0 11 -4 11 -10z
m1035 0 c3 -5 1 -10 -4 -10 -6 0 -11 5 -11 10 0 6 2 10 4 10 3 0 8 -4 11 -10z
m-520 -170 c3 -5 1 -10 -4 -10 -6 0 -11 5 -11 10 0 6 2 10 4 10 3 0 8 -4 11
-10z"/>
<path d="M2001 2793 c-1 -6 -4 -20 -7 -30 -5 -17 -5 -17 6 0 6 10 9 23 6 30
-3 9 -5 9 -5 0z"/>
<path d="M1971 2696 c-14 -56 -14 -226 0 -286 30 -130 140 -282 263 -362 60
-38 76 -45 76 -30 0 8 -45 34 -61 36 -4 1 -24 16 -45 34 -22 17 -46 38 -55 45
-29 23 -89 104 -100 136 -6 17 -15 31 -20 31 -5 0 -9 9 -9 19 0 11 -4 22 -9
25 -5 4 -12 24 -16 46 -4 22 -11 42 -16 46 -13 7 -11 211 2 257 6 22 8 41 6
43 -2 3 -10 -15 -16 -40z"/>
<path d="M2350 1990 c8 -5 24 -10 35 -10 17 0 17 2 5 10 -8 5 -24 10 -35 10
-17 0 -17 -2 -5 -10z"/>
<path d="M2418 1973 c7 -3 16 -2 19 1 4 3 -2 6 -13 5 -11 0 -14 -3 -6 -6z"/>
<path d="M2725 3470 c-3 -5 1 -10 10 -10 9 0 13 5 10 10 -3 6 -8 10 -10 10 -2
0 -7 -4 -10 -10z"/>
<path d="M2770 3460 c0 -5 5 -10 11 -10 5 0 7 5 4 10 -3 6 -8 10 -11 10 -2 0
-4 -4 -4 -10z"/>
<path d="M2810 3451 c0 -8 41 -23 47 -17 2 1 -8 8 -22 14 -14 6 -25 8 -25 3z"/>
<path d="M356 3390 c-17 -43 -21 -68 -9 -56 9 9 34 89 29 94 -2 1 -11 -15 -20
-38z"/>
<path d="M2955 3386 c108 -52 191 -113 275 -203 150 -160 229 -347 248 -589 5
-60 10 -87 11 -59 2 88 -19 266 -34 288 -8 12 -15 29 -15 39 0 19 -59 145 -88
189 -63 96 -65 99 -125 159 -67 68 -121 111 -162 129 -12 5 -27 16 -34 25 -7
9 -18 16 -23 16 -5 0 -34 11 -64 25 -93 43 -84 27 11 -19z"/>
<path d="M316 3274 c-8 -22 -7 -34 3 -34 5 0 9 11 9 25 0 29 -3 31 -12 9z"/>
<path d="M388 3243 c23 -2 59 -2 80 0 20 2 1 4 -43 4 -44 0 -61 -2 -37 -4z"/>
<path d="M558 3243 c23 -2 61 -2 85 0 23 2 4 4 -43 4 -47 0 -66 -2 -42 -4z"/>
<path d="M728 3243 c23 -2 61 -2 85 0 23 2 4 4 -43 4 -47 0 -66 -2 -42 -4z"/>
<path d="M908 3243 c23 -2 59 -2 80 0 20 2 1 4 -43 4 -44 0 -61 -2 -37 -4z"/>
<path d="M1078 3243 c23 -2 59 -2 80 0 20 2 1 4 -43 4 -44 0 -61 -2 -37 -4z"/>
<path d="M1248 3243 c23 -2 61 -2 85 0 23 2 4 4 -43 4 -47 0 -66 -2 -42 -4z"/>
<path d="M1418 3243 c23 -2 61 -2 85 0 23 2 4 4 -43 4 -47 0 -66 -2 -42 -4z"/>
<path d="M1570 3244 c36 -8 100 -9 100 -2 0 5 -26 7 -57 7 -32 -1 -51 -3 -43
-5z"/>
<path d="M3668 3243 c23 -2 61 -2 85 0 23 2 4 4 -43 4 -47 0 -66 -2 -42 -4z"/>
<path d="M3838 3243 c23 -2 61 -2 85 0 23 2 4 4 -43 4 -47 0 -66 -2 -42 -4z"/>
<path d="M4018 3243 c23 -2 59 -2 80 0 20 2 1 4 -43 4 -44 0 -61 -2 -37 -4z"/>
<path d="M4188 3243 c23 -2 59 -2 80 0 20 2 1 4 -43 4 -44 0 -61 -2 -37 -4z"/>
<path d="M4358 3243 c23 -2 61 -2 85 0 23 2 4 4 -43 4 -47 0 -66 -2 -42 -4z"/>
<path d="M4528 3243 c23 -2 61 -2 85 0 23 2 4 4 -43 4 -47 0 -66 -2 -42 -4z"/>
<path d="M4698 3243 c17 -2 47 -2 65 0 17 2 3 4 -33 4 -36 0 -50 -2 -32 -4z"/>
<path d="M1605 3149 c-4 -6 -5 -12 -2 -15 2 -3 7 2 10 11 7 17 1 20 -8 4z"/>
<path d="M3467 2420 c-4 -36 -10 -76 -13 -89 -5 -16 -4 -22 4 -17 11 7 27 121
20 152 -2 10 -7 -10 -11 -46z"/>
<path d="M3419 2225 c-9 -25 -13 -42 -8 -40 9 6 33 75 27 80 -2 2 -11 -16 -19
-40z"/>
<path d="M314 1844 c4 -9 18 -51 32 -93 37 -111 172 -381 249 -496 82 -122
218 -291 223 -277 1 5 -13 27 -32 48 -20 22 -36 45 -36 52 0 6 -6 12 -12 13
-13 0 -78 91 -78 109 0 5 -4 10 -9 10 -5 0 -20 17 -32 38 -13 20 -34 53 -46
72 -13 19 -28 46 -34 60 -5 13 -13 27 -17 30 -18 13 -145 285 -156 335 -8 34
-45 115 -53 115 -3 0 -2 -7 1 -16z"/>
<path d="M1710 1822 c0 -14 120 -125 127 -118 5 5 -112 126 -123 126 -2 0 -4
-4 -4 -8z"/>
<path d="M3857 1398 c238 -238 435 -430 438 -426 8 7 -842 858 -858 858 -6 0
182 -194 420 -432z"/>
<path d="M3244 983 c0 -441 4 -677 11 -680 7 -2 9 227 7 677 -1 383 -6 680
-11 680 -5 0 -8 -292 -7 -677z"/>
<path d="M2255 1476 c46 -15 120 -28 112 -20 -7 7 -118 33 -137 33 -8 -1 3 -7
25 -13z"/>
<path d="M2508 1433 c7 -3 16 -2 19 1 4 3 -2 6 -13 5 -11 0 -14 -3 -6 -6z"/>
<path d="M1686 372 c-3 -6 8 -15 26 -21 38 -13 38 -13 38 -1 0 6 -8 10 -18 10
-10 0 -23 5 -29 11 -7 7 -13 7 -17 1z"/>
<path d="M1770 330 c20 -13 33 -13 25 0 -3 6 -14 10 -23 10 -15 0 -15 -2 -2
-10z"/>
<path d="M1825 310 c27 -12 43 -12 25 0 -8 5 -22 9 -30 9 -10 0 -8 -3 5 -9z"/>
<path d="M2873 5103 c9 -2 23 -2 30 0 6 3 -1 5 -18 5 -16 0 -22 -2 -12 -5z"/>
<path d="M3200 5050 c0 -5 5 -10 11 -10 5 0 7 5 4 10 -3 6 -8 10 -11 10 -2 0
-4 -4 -4 -10z"/>
<path d="M3245 5030 c3 -5 8 -10 11 -10 2 0 4 5 4 10 0 6 -5 10 -11 10 -5 0
-7 -4 -4 -10z"/>
<path d="M3285 5020 c3 -5 11 -10 16 -10 6 0 7 5 4 10 -3 6 -11 10 -16 10 -6
0 -7 -4 -4 -10z"/>
<path d="M3330 5010 c0 -6 7 -10 15 -10 8 0 15 2 15 4 0 2 -7 6 -15 10 -8 3
-15 1 -15 -4z"/>
<path d="M3425 4970 c11 -5 27 -9 35 -9 9 0 8 4 -5 9 -11 5 -27 9 -35 9 -9 0
-8 -4 5 -9z"/>
<path d="M3559 4919 c24 -11 46 -17 49 -14 6 6 -62 35 -80 34 -7 0 7 -9 31
-20z"/>
<path d="M3620 4895 c0 -2 9 -9 20 -15 16 -9 18 -8 14 5 -5 13 -34 22 -34 10z"/>
<path d="M3670 4870 c0 -5 5 -10 10 -10 6 0 10 5 10 10 0 6 -4 10 -10 10 -5 0
-10 -4 -10 -10z"/>
<path d="M3770 4815 c36 -19 72 -39 80 -45 39 -26 70 -40 70 -30 0 5 -15 17
-32 25 -18 9 -51 27 -73 40 -48 30 -82 45 -98 45 -7 0 17 -16 53 -35z"/>
<path d="M3930 4733 c0 -6 26 -28 58 -49 260 -171 554 -475 730 -755 97 -154
232 -437 262 -551 6 -22 13 -38 16 -35 8 8 -18 111 -32 125 -8 7 -14 20 -14
28 0 9 -11 40 -25 70 -14 30 -25 61 -25 68 0 7 -9 23 -20 36 -11 13 -20 30
-20 37 0 8 -9 27 -19 42 -11 15 -23 39 -26 54 -4 15 -11 27 -17 27 -5 0 -16
15 -24 33 -23 51 -55 101 -69 110 -8 4 -16 21 -20 37 -4 17 -12 30 -19 30 -6
0 -20 15 -30 34 -10 18 -31 48 -47 65 -16 18 -29 36 -29 40 0 4 -10 17 -22 28
-13 11 -38 39 -57 61 -18 23 -69 76 -114 119 -44 43 -90 88 -102 101 -12 12
-27 22 -33 22 -6 0 -16 9 -22 20 -6 11 -17 20 -25 20 -7 0 -17 9 -20 21 -4 11
-9 18 -12 15 -3 -3 -21 7 -39 22 -62 51 -92 72 -102 72 -5 0 -12 7 -16 15 -3
8 -11 15 -17 15 -7 0 -21 7 -31 17 -10 9 -18 11 -18 6z"/>
<path d="M5006 3332 c-3 -5 5 -50 18 -98 14 -49 33 -127 43 -173 11 -54 23
-86 33 -89 12 -4 13 -2 4 9 -12 14 -21 55 -30 124 -3 22 -14 65 -25 97 -10 32
-19 70 -19 85 0 33 -15 60 -24 45z"/>
<path d="M5096 2880 c10 -103 25 -144 18 -50 -8 102 -9 108 -18 117 -4 5 -4
-26 0 -67z"/>
<path d="M5101 2263 c1 -34 2 -35 9 -13 11 36 11 50 0 50 -5 0 -10 -17 -9 -37z"/>
<path d="M5090 2186 c0 -20 2 -36 4 -36 8 0 12 61 4 66 -4 3 -8 -11 -8 -30z"/>
<path d="M5071 2074 c0 -11 3 -14 6 -6 3 7 2 16 -1 19 -3 4 -6 -2 -5 -13z"/>
<path d="M5060 2024 c0 -8 5 -12 10 -9 6 3 10 10 10 16 0 5 -4 9 -10 9 -5 0
-10 -7 -10 -16z"/>
<path d="M5057 1993 c-4 -3 -7 -16 -6 -27 0 -19 1 -19 10 3 10 24 8 36 -4 24z"/>
<path d="M5021 1864 c0 -11 3 -14 6 -6 3 7 2 16 -1 19 -3 4 -6 -2 -5 -13z"/>
<path d="M5012 1820 c0 -14 2 -19 5 -12 2 6 2 18 0 25 -3 6 -5 1 -5 -13z"/>
<path d="M4976 1719 c-8 -42 0 -50 9 -9 4 17 5 34 2 36 -2 3 -7 -10 -11 -27z"/>
<path d="M4931 1594 c0 -11 3 -14 6 -6 3 7 2 16 -1 19 -3 4 -6 -2 -5 -13z"/>
<path d="M4845 1410 c-4 -12 -5 -24 -2 -27 3 -2 8 5 12 17 4 12 5 24 2 27 -3
2 -8 -5 -12 -17z"/>
</g>
</svg>
